#N canvas 767 417 450 300 10;
#X obj 40 15 key;
#X obj 109 16 keyup;
#X msg 40 104 1;
#X msg 109 105 0;
#X obj 40 125 change;
#X obj 109 57 spigot;
#X obj 40 56 spigot;
#X obj 196 16 r keyboardIsOn;
#X obj 109 84 sel \$1;
#X obj 40 82 sel \$1;
#X obj 40 146 sel 1;
#X obj 40 167 outlet;
#X connect 0 0 6 0;
#X connect 1 0 5 0;
#X connect 2 0 4 0;
#X connect 3 0 4 0;
#X connect 4 0 10 0;
#X connect 5 0 8 0;
#X connect 6 0 9 0;
#X connect 7 0 5 1;
#X connect 7 0 6 1;
#X connect 8 0 3 0;
#X connect 9 0 2 0;
#X connect 10 0 11 0;
