#N canvas 54 454 426 190 10;
#N canvas 352 261 912 507 organelle 0;
#X obj 100 100 cnv 15 400 150 empty empty empty 20 12 0 14 -109230
-1 0;
#X obj 115 117 vsl 20 40 0 1 0 0 knob1 knob1 empty 2 -9 1 10 -33289
-262144 -228856 2000 1;
#X obj 115 207 cnv 8 8 8 empty led-canvas empty 20 12 0 14 -99865 -262144
0;
#X obj 173 221 tgl 20 0 key3 key3 X 6 10 1 13 -257108 -132417 -244306
0 1;
#X obj 198 221 tgl 20 0 key5 key5 C 6 10 1 13 -257108 -132417 -244306
0 1;
#X obj 148 221 tgl 20 0 key1 key1 Z 6 10 1 13 -257108 -132417 -244306
0 1;
#X obj 248 221 tgl 20 0 key8 key8 B 6 10 1 13 -257108 -132417 -244306
0 1;
#X obj 273 221 tgl 20 0 key10 key10 N 6 10 1 13 -257108 -132417 -244306
0 1;
#X obj 223 221 tgl 20 0 key6 key6 V 6 10 1 13 -257108 -132417 -244306
0 1;
#X obj 298 221 tgl 20 0 key12 key12 M 5 10 1 13 -257108 -132417 -244306
0 1;
#X obj 161 196 tgl 20 0 key2 key2 S 6 10 1 13 -257108 -132417 -244306
0 1;
#X obj 186 196 tgl 20 0 key4 key4 D 6 10 1 13 -257108 -132417 -244306
0 1;
#X obj 260 196 tgl 20 0 key9 key9 H 6 10 1 13 -257108 -132417 -244306
0 1;
#X obj 285 196 tgl 20 0 key11 key11 J 6 10 1 13 -257108 -132417 -244306
0 1;
#X obj 235 196 tgl 20 0 key7 key7 G 6 10 1 13 -257108 -132417 -244306
0 1;
#X obj 348 221 tgl 20 0 key15 key15 W 4 10 1 13 -257108 -132417 -244306
0 1;
#X obj 373 221 tgl 20 0 key17 key17 E 6 10 1 13 -257108 -132417 -244306
0 1;
#X obj 323 221 tgl 20 0 key13 key13 Q 6 10 1 13 -257108 -132417 -244306
0 1;
#X obj 423 221 tgl 20 0 key20 key20 T 6 10 1 13 -257108 -132417 -244306
0 1;
#X obj 448 221 tgl 20 0 key22 key22 Y 6 10 1 13 -257108 -132417 -244306
0 1;
#X obj 398 221 tgl 20 0 key18 key18 R 6 10 1 13 -257108 -132417 -244306
0 1;
#X obj 473 221 tgl 20 0 key24 key24 U 6 10 1 13 -257108 -132417 -244306
0 1;
#X obj 336 196 tgl 20 0 key14 key14 2 6 10 1 13 -257108 -132417 -244306
0 1;
#X obj 361 196 tgl 20 0 key16 key16 3 6 10 1 13 -257108 -132417 -244306
0 1;
#X obj 435 196 tgl 20 0 key21 key21 6 6 10 1 13 -257108 -132417 -244306
0 1;
#X obj 460 196 tgl 20 0 key23 key23 7 6 10 1 13 -257108 -132417 -244306
0 1;
#X obj 410 196 tgl 20 0 key19 key19 5 6 10 1 13 -257108 -132417 -244306
0 1;
#X obj 109 221 tgl 20 0 aux aux A 6 10 1 14 -257108 -132417 -244306
0 1;
#X obj 150 117 vsl 20 40 0 1 0 0 knob2 knob2 empty 2 -9 1 10 -33289
-262144 -228856 1950 1;
#X obj 185 117 vsl 20 40 0 1 0 0 knob3 knob3 empty 2 -9 1 10 -33289
-262144 -228856 1950 1;
#X obj 220 117 vsl 20 40 0 1 0 0 knob4 knob4 empty 2 -9 1 10 -33289
-262144 -228856 1950 1;
#X obj 465 117 vsl 20 40 0 1 0 0 vol vol empty 2 -9 1 10 -33289 -262144
-228856 2925 1;
#N canvas 1235 144 681 716 led 0;
#X msg 69 429 \; led-canvas color \$1 0;
#X obj 68 335 sel 0 1 2 3 4 5 6 7, f 63;
#X msg 351 376 19;
#X msg 402 379 0;
#X obj 69 185 r oscOut;
#X obj 69 206 route send;
#X obj 69 227 route /led;
#X msg 69 375 21;
#X msg 112 375 16;
#X msg 156 375 18;
#X msg 200 374 17;
#X msg 251 377 13;
#X msg 307 377 15;
#X connect 1 0 7 0;
#X connect 1 1 8 0;
#X connect 1 2 9 0;
#X connect 1 3 10 0;
#X connect 1 4 11 0;
#X connect 1 5 12 0;
#X connect 1 6 2 0;
#X connect 1 7 3 0;
#X connect 2 0 0 0;
#X connect 3 0 0 0;
#X connect 4 0 5 0;
#X connect 5 0 6 0;
#X connect 6 0 1 0;
#X connect 7 0 0 0;
#X connect 8 0 0 0;
#X connect 9 0 0 0;
#X connect 10 0 0 0;
#X connect 11 0 0 0;
#X connect 12 0 0 0;
#X restore 570 163 pd led;
#N canvas 592 335 730 325 init 0;
#X obj 52 32 loadbang;
#X obj 86 210 s vol;
#X obj 34 154 s knob1;
#X obj 34 172 s knob2;
#X obj 34 191 s knob3;
#X obj 34 209 s knob4;
#X msg 86 88 0.75;
#X msg 35 87 0.5;
#X obj 343 218 dac~;
#X obj 439 57 catch~ outR;
#X obj 342 56 catch~ outL;
#X obj 150 134 adc~, f 6;
#X obj 201 249 s~ inR;
#X obj 150 249 s~ inL;
#X obj 536 90 r vol;
#X obj 343 98 clip~ -1 1;
#X obj 439 98 clip~ -1 1;
#X obj 151 190 *~ 2;
#X obj 343 77 *~ 0.6;
#X obj 439 77 *~ 0.6;
#X msg 156 70 \; pd dsp 1, f 10;
#X obj 156 30 loadbang;
#X obj 156 50 delay 100;
#X obj 440 167 *~ 1;
#X obj 344 168 *~ 1;
#X obj 536 115 line 20;
#X obj 487 255 snapshot~;
#X obj 581 255 snapshot~;
#X obj 613 155 bang~;
#X obj 487 275 s outL_num;
#X obj 581 276 s outR_num;
#X obj 273 254 snapshot~;
#X obj 367 254 snapshot~;
#X obj 191 190 *~ 2;
#X obj 367 275 s inR_num;
#X obj 274 274 s inL_num;
#X connect 0 0 6 0;
#X connect 0 0 7 0;
#X connect 6 0 1 0;
#X connect 7 0 2 0;
#X connect 7 0 5 0;
#X connect 7 0 4 0;
#X connect 7 0 3 0;
#X connect 9 0 19 0;
#X connect 10 0 18 0;
#X connect 11 0 17 0;
#X connect 11 1 33 0;
#X connect 14 0 25 0;
#X connect 15 0 24 0;
#X connect 16 0 23 0;
#X connect 17 0 13 0;
#X connect 17 0 31 0;
#X connect 18 0 15 0;
#X connect 19 0 16 0;
#X connect 21 0 22 0;
#X connect 22 0 20 0;
#X connect 23 0 8 1;
#X connect 23 0 27 0;
#X connect 24 0 8 0;
#X connect 24 0 26 0;
#X connect 25 0 23 1;
#X connect 25 0 24 1;
#X connect 26 0 29 0;
#X connect 27 0 30 0;
#X connect 28 0 32 0;
#X connect 28 0 31 0;
#X connect 28 0 27 0;
#X connect 28 0 26 0;
#X connect 31 0 35 0;
#X connect 32 0 34 0;
#X connect 33 0 12 0;
#X connect 33 0 32 0;
#X restore 570 121 pd init;
#N canvas 624 101 450 300 oled 0;
#X obj 100 100 cnv 20 50 30 empty empty empty 20 12 0 14 -33289 -66577
0;
#X coords 0 -1 1 1 50 30 1 100 100;
#X restore 333 115 pd oled;
#X obj 404 117 vsl 20 40 0 1 0 0 empty empty empty 2 -9 1 10 -33289
-262144 -228856 0 1;
#X obj 427 115 bng 13 250 50 0 empty empty 8 16 7 1 8 -66577 -4034
-75494;
#X obj 543 389 s oscIn;
#X msg 543 325 /encoder/turn \$1;
#X msg 543 303 0;
#X msg 573 303 1;
#X obj 541 281 sel 0 1;
#X obj 427 147 bng 13 250 50 0 empty empty down 16 7 1 6 -66577 -4034
-75494;
#X obj 427 131 bng 13 250 50 0 empty empty 9 16 7 1 8 -66577 -4034
-75494;
#X obj 427 20 kFilter 56;
#X obj 446 56 kFilter 48;
#X obj 435 37 kFilter 57;
#N canvas 557 123 1366 725 keyboard 0;
#X obj 156 442 s key1;
#X text 195 401 z;
#X text 295 400 x;
#X text 919 402 q;
#X text 960 313 2;
#X text 1010 400 w;
#X text 1062 312 3;
#X text 1220 399 r;
#X text 1103 398 e;
#X text 1314 397 t;
#X text 1431 398 y;
#X text 1538 396 u;
#X text 1475 314 7;
#X text 1359 312 6;
#X text 1254 317 5;
#X text 239 309 s;
#X text 337 308 d;
#X text 554 314 g;
#X text 665 314 h;
#X text 771 309 j;
#X text 393 399 c;
#X text 512 398 v;
#X text 607 399 b;
#X text 713 399 n;
#X text 817 398 m;
#X obj 214 358 s key2;
#X obj 263 441 s key3;
#X obj 330 356 s key4;
#X obj 367 441 s key5;
#X obj 474 446 s key6;
#X obj 523 355 s key7;
#X obj 577 444 s key8;
#X obj 633 355 s key9;
#X obj 676 444 s key10;
#X obj 736 352 s key11;
#X obj 780 446 s key12;
#X obj 881 447 s key13;
#X obj 982 446 s key15;
#X obj 1048 361 s key16;
#X obj 1081 445 s key17;
#X obj 1185 446 s key18;
#X obj 1236 366 s key19;
#X obj 1290 447 s key20;
#X obj 1339 365 s key21;
#X obj 1400 446 s key22;
#X obj 1445 365 s key23;
#X obj 1506 445 s key24;
#X obj 30 408 s aux;
#X obj 938 358 s key14;
#X obj 156 421 nFilter 122 60;
#X obj 214 336 nFilter 115 61;
#X obj 263 420 nFilter 120 62;
#X obj 330 336 nFilter 100 63;
#X obj 367 420 nFilter 99 64;
#X obj 474 420 nFilter 118 65;
#X obj 522 333 nFilter 103 66;
#X obj 578 422 nFilter 98 67;
#X obj 631 334 nFilter 104 68;
#X obj 677 422 nFilter 110 69;
#X obj 736 333 nFilter 106 70;
#X obj 778 421 nFilter 109 71;
#X obj 881 426 nFilter 113 72;
#X obj 938 340 nFilter 50 73;
#X obj 982 425 nFilter 119 74;
#X obj 1048 342 nFilter 51 75;
#X obj 1081 424 nFilter 101 76;
#X obj 1185 425 nFilter 114 77;
#X obj 1235 347 nFilter 53 78;
#X obj 1289 425 nFilter 116 79;
#X obj 1339 344 nFilter 54 80;
#X obj 1399 425 nFilter 121 81;
#X obj 1445 344 nFilter 55 82;
#X obj 1502 424 nFilter 117 83;
#X obj 120 223 r keyboardIsOn;
#X obj 30 199 key;
#X obj 85 199 keyup;
#X obj 30 348 change;
#X msg 30 287 1;
#X msg 85 288 0;
#X obj 85 250 spigot;
#X obj 30 250 spigot;
#X obj 30 268 sel 97;
#X obj 85 269 sel 97;
#X obj 79 330 bng 15 250 50 0 empty empty empty 17 7 0 10 -262144 -1
-1;
#X obj 128 334 bng 15 250 50 0 empty empty empty 17 7 0 10 -262144
-1 -1;
#X obj 52 381 bng 15 250 50 0 empty empty empty 17 7 0 10 -262144 -1
-1;
#X connect 49 0 0 0;
#X connect 50 0 25 0;
#X connect 51 0 26 0;
#X connect 52 0 27 0;
#X connect 53 0 28 0;
#X connect 54 0 29 0;
#X connect 55 0 30 0;
#X connect 56 0 31 0;
#X connect 57 0 32 0;
#X connect 58 0 33 0;
#X connect 59 0 34 0;
#X connect 60 0 35 0;
#X connect 61 0 36 0;
#X connect 62 0 48 0;
#X connect 63 0 37 0;
#X connect 64 0 38 0;
#X connect 65 0 39 0;
#X connect 66 0 40 0;
#X connect 67 0 41 0;
#X connect 68 0 42 0;
#X connect 69 0 43 0;
#X connect 70 0 44 0;
#X connect 71 0 45 0;
#X connect 72 0 46 0;
#X connect 73 0 79 1;
#X connect 73 0 80 1;
#X connect 74 0 80 0;
#X connect 75 0 79 0;
#X connect 76 0 47 0;
#X connect 76 0 85 0;
#X connect 77 0 76 0;
#X connect 77 0 83 0;
#X connect 78 0 76 0;
#X connect 78 0 84 0;
#X connect 79 0 82 0;
#X connect 80 0 81 0;
#X connect 81 0 77 0;
#X connect 82 0 78 0;
#X restore 570 141 pd keyboard;
#X obj 381 353 s encbut;
#X obj 436 353 s enc;
#X msg 381 333 1;
#X obj 430 162 bng 10 250 50 0 empty empty release 12 7 1 6 -66577
-4034 -75494;
#X msg 652 324 /encoder/button 1;
#X msg 658 343 /encoder/button 0;
#X msg 415 330 0;
#X obj 459 74 kFilter 45;
#X connect 35 0 41 0;
#X connect 36 0 39 0;
#X connect 38 0 37 0;
#X connect 39 0 38 0;
#X connect 39 0 49 0;
#X connect 40 0 38 0;
#X connect 40 0 49 0;
#X connect 41 0 39 0;
#X connect 41 1 40 0;
#X connect 42 0 52 0;
#X connect 42 0 50 0;
#X connect 43 0 40 0;
#X connect 44 0 36 0;
#X connect 45 0 42 0;
#X connect 46 0 43 0;
#X connect 50 0 48 0;
#X connect 51 0 53 0;
#X connect 51 0 54 0;
#X connect 52 0 37 0;
#X connect 53 0 37 0;
#X connect 54 0 48 0;
#X connect 55 0 51 0;
#X coords 0 -1 1 1 400 150 2 100 100;
#X restore 2 1 pd organelle;
#N canvas 770 292 494 300 enableKeyboard 0;
#X obj 102 -31 key;
#X obj 102 -10 sel 27;
#X obj 171 -9 sel 27;
#X obj 171 -30 keyup;
#X msg 102 11 1;
#X msg 171 12 0;
#X obj 103 59 change;
#X obj 103 80 sel 1;
#X obj 103 103 tgl 20 0 empty empty Esc 1 11 1 11 -162280 -66577 -99865
1 1;
#X text 123 100 desktop;
#X text 123 109 keyboard;
#X obj 103 202 s keyboardIsOn;
#X obj 171 102 cnv 5 5 5 empty keyboard-canvas empty 20 12 0 14 -24198
-66577 0;
#X msg 211 190 \; keyboard-canvas color \$1 0;
#X obj 211 150 sel 0 1;
#X msg 211 171 13;
#X msg 247 170 16;
#X obj 25 25 loadbang;
#X msg 25 46 1;
#X connect 0 0 1 0;
#X connect 1 0 4 0;
#X connect 2 0 5 0;
#X connect 3 0 2 0;
#X connect 4 0 6 0;
#X connect 5 0 6 0;
#X connect 6 0 7 0;
#X connect 7 0 8 0;
#X connect 8 0 11 0;
#X connect 8 0 14 0;
#X connect 14 0 15 0;
#X connect 14 1 16 0;
#X connect 15 0 13 0;
#X connect 16 0 13 0;
#X connect 17 0 18 0;
#X connect 18 0 8 0;
#X coords 0 -1 1 1 78 25 2 100 100;
#X restore 4 155 pd enableKeyboard;
#N canvas 560 325 556 300 enableKeyboard 0;
#X obj 103 -31 key;
#X obj 172 -30 keyup;
#X msg 103 38 1;
#X msg 172 39 0;
#X obj 103 59 change;
#X obj 117 103 tgl 20 0 empty empty P 6 10 1 12 -162280 -66577 -66577
0 1;
#X obj 166 102 cnv 5 5 5 empty pedal-canvas empty 20 12 0 14 -258699
-66577 0;
#X obj 222 150 sel 0 1;
#X msg 211 171 13;
#X msg 247 170 16;
#X text 139 108 pedal;
#X msg 211 190 \; pedal-canvas color \$1 0;
#X obj 103 17 sel 112;
#X obj 172 18 sel 112;
#X obj 172 -9 spigot;
#X obj 103 -10 spigot;
#X obj 259 -30 r keyboardIsOn;
#X obj 132 197 s fs;
#X obj 103 103 vsl 10 17 0 1 0 0 empty empty empty 0 -9 0 10 -162280
-33289 -33289 0 1;
#X obj 79 197 s exp;
#X obj 117 128 == 0;
#X connect 0 0 15 0;
#X connect 1 0 14 0;
#X connect 2 0 4 0;
#X connect 3 0 4 0;
#X connect 4 0 5 0;
#X connect 5 0 7 0;
#X connect 5 0 20 0;
#X connect 7 0 8 0;
#X connect 7 1 9 0;
#X connect 8 0 11 0;
#X connect 9 0 11 0;
#X connect 12 0 2 0;
#X connect 13 0 3 0;
#X connect 14 0 13 0;
#X connect 15 0 12 0;
#X connect 16 0 14 1;
#X connect 16 0 15 1;
#X connect 18 0 19 0;
#X connect 20 0 17 0;
#X coords 0 -1 1 1 75 25 2 100 100;
#X restore 89 154 pd enableKeyboard;
#N canvas 349 110 1677 779 enableKeyboard 0;
#X obj 125 102 tgl 10 0 empty empty empty 6 10 1 12 -162280 -66577
-66577 1 1;
#X obj 150 103 cnv 5 5 5 empty oled-canvas empty 20 12 0 14 -24198
-66577 0;
#X obj 102 135 sel 0 1;
#X msg -110 236 13;
#X msg -74 235 16;
#X msg 101 341 disconnect;
#X floatatom 210 738 5 0 0 0 - - -;
#X obj 632 584 list prepend send;
#X obj 632 604 list trim;
#X obj 210 716 netsend -u -b;
#X msg 120 323 connect 127.0.0.1 3000;
#X obj 632 564 oscformat;
#X obj 399 447 list split 1;
#X obj 405 222 t l b;
#X obj 448 262 t l b;
#X obj 497 301 t l b;
#X obj 546 339 t l b;
#X msg 432 242 set gFlip;
#X msg 475 282 set gClear;
#X msg 523 321 set gSetPixel;
#X msg 573 359 set gLine;
#X obj 561 223 t l b;
#X msg 588 243 set gBox;
#X obj 605 262 t l b;
#X msg 632 282 set gFillArea;
#X obj 646 299 t l b;
#X msg 673 319 set gCircle;
#X obj 691 340 t l b;
#X msg 718 360 set gFilledCircle;
#X obj 710 239 t l b;
#X msg 737 259 set gPrintln;
#X obj 375 18 r oscOut;
#X obj 402 755 bng 15 250 50 0 empty empty empty 17 7 0 10 -262144
-1 -1;
#X text 123 109 OLED;
#X msg -110 255 \; oled-canvas color \$1 0;
#X obj 93 -2 loadbang;
#X msg 15 44 1;
#N canvas 486 72 694 465 screenLine 0;
#X obj 44 29 r screenLine1;
#X obj 303 31 r screenLine2;
#X obj 420 127 r screenLine4;
#X obj 135 117 r screenLine3;
#X obj 420 195 r screenLine5;
#X obj 65 428 outlet;
#X msg 19 360 /oled/gFlip 3;
#X obj 84 313 route list;
#X obj 65 275 t b l l;
#X obj 149 291 list split 3;
#X obj 44 81 list prepend /oled/gPrintln 3 0 9 8 1;
#X obj 304 82 list prepend /oled/gPrintln 3 0 21 8 1;
#X obj 135 154 list prepend /oled/gPrintln 3 0 33 8 1;
#X obj 420 164 list prepend /oled/gPrintln 3 0 45 8 1;
#X obj 420 231 list prepend /oled/gPrintln 3 0 57 8 1;
#X obj 318 52 print sL2:;
#X obj 64 54 print sL1:;
#X obj 150 135 print sL3:;
#X obj 433 145 print sL4:;
#X obj 429 214 print sL5:;
#X msg 183 376 /oled/gFillArea 3 0 \$1 128 9 0;
#X obj 183 311 list split 1;
#X obj 183 332 - 1;
#X connect 0 0 10 0;
#X connect 0 0 16 0;
#X connect 1 0 11 0;
#X connect 1 0 15 0;
#X connect 2 0 13 0;
#X connect 2 0 18 0;
#X connect 3 0 12 0;
#X connect 3 0 17 0;
#X connect 4 0 14 0;
#X connect 4 0 19 0;
#X connect 6 0 5 0;
#X connect 7 0 5 0;
#X connect 8 0 6 0;
#X connect 8 1 7 0;
#X connect 8 2 9 0;
#X connect 9 1 21 0;
#X connect 10 0 8 0;
#X connect 11 0 8 0;
#X connect 12 0 8 0;
#X connect 13 0 8 0;
#X connect 14 0 8 0;
#X connect 20 0 5 0;
#X connect 21 0 22 0;
#X connect 22 0 20 0;
#X restore 466 49 pd screenLine;
#X obj 291 529 i;
#X obj 316 529 + 1;
#X obj 306 380 t b b;
#X msg 306 401 0;
#X obj 433 478 t b l;
#X obj 415 539 loadbang;
#X obj 335 579 expr $f2 > $f3;
#X obj 335 600 sel 1;
#X obj 335 621 i;
#X obj 334 642 print ALERT!!! HIGH NUMBER OF DRAWCALLS;
#X obj 815 165 t l b;
#X msg 844 208 set gInvertArea;
#N canvas 732 295 930 585 drawInfoBar 0;
#X obj 478 220 vu 15 120 empty empty -1 -8 0 10 -66577 -1 1 0;
#X obj 401 48 r inL_num;
#X obj 512 49 r inR_num;
#X obj 401 69 abs;
#X obj 512 70 abs;
#X obj 614 49 r outL_num;
#X obj 726 49 r outR_num;
#X obj 614 70 abs;
#X obj 726 70 abs;
#X obj 692 221 vu 15 120 empty empty -1 -8 0 10 -66577 -1 1 0;
#X obj 290 406 t l b;
#X msg 317 426 set gDrawInfoBar;
#X obj 290 507 outlet;
#X obj 290 230 pack 1 2 3 4 5;
#X obj 290 48 loadbang;
#X obj 290 69 metro 60;
#X msg 290 251 \$2 \$3 \$4 \$5;
#X obj 614 91 * 100;
#X obj 726 91 * 100;
#X obj 401 90 * 50;
#X obj 512 91 * 50;
#X obj 82 57 inlet;
#X floatatom 120 125 5 0 0 0 - - -;
#X obj 286 336 spigot;
#X obj 331 292 loadbang;
#X msg 331 313 1;
#X connect 1 0 3 0;
#X connect 2 0 4 0;
#X connect 3 0 19 0;
#X connect 4 0 20 0;
#X connect 5 0 7 0;
#X connect 6 0 8 0;
#X connect 7 0 17 0;
#X connect 8 0 18 0;
#X connect 10 0 12 0;
#X connect 10 1 11 0;
#X connect 11 0 12 0;
#X connect 13 0 16 0;
#X connect 14 0 15 0;
#X connect 15 0 13 0;
#X connect 16 0 23 0;
#X connect 17 0 9 0;
#X connect 17 0 13 3;
#X connect 18 0 9 0;
#X connect 18 0 13 4;
#X connect 19 0 0 0;
#X connect 19 0 13 1;
#X connect 20 0 0 0;
#X connect 20 0 13 2;
#X connect 21 0 22 0;
#X connect 22 0 23 1;
#X connect 23 0 10 0;
#X connect 24 0 25 0;
#X connect 25 0 23 1;
#X restore 976 276 pd drawInfoBar;
#X msg 415 560 100;
#X text 445 560 moderate number of;
#X text 445 569 draw calls before choking;
#X msg 1031 247 1;
#X obj 982 246 unpack;
#X msg 264 106 /oled/gClear 3 1;
#X obj 101 178 t b b;
#X obj 1210 245 t l b;
#X msg 1236 265 set gInvertLine;
#X obj 375 39 route send;
#X obj 402 103 route /oled/gFlip /oled/gClear /oled/gSetPixel /oled/gLine
/oled/gBox /oled/gFillArea /oled/gCircle /oled/gFilledCircle /oled/gPrintln
/oled/gInvertArea /oled/gShowInfoBar /oled/invertline /oled/line/1
/oled/line/2 /oled/line/3 /oled/line/4 /oled/line/5, f 139;
#N canvas 539 252 876 479 oled/line/12345 0;
#X obj 51 14 inlet;
#X msg 51 35 1;
#X obj 123 13 inlet;
#X msg 123 34 2;
#X obj 196 15 inlet;
#X obj 272 16 inlet;
#X msg 196 36 3;
#X msg 272 37 4;
#X obj 423 13 inlet;
#X msg 423 34 5;
#X obj 197 263 t i b;
#X obj 271 374 outlet;
#X obj 117 381 outlet;
#X msg 223 283 set gCleanln;
#X obj 435 170 spigot;
#X obj 435 190 spigot;
#X obj 435 211 spigot;
#X obj 435 232 spigot;
#X obj 423 55 t b b f;
#X msg 423 76 0;
#X obj 452 282 t i b;
#X obj 448 401 outlet;
#X msg 478 302 set gClear;
#X msg 436 368 1;
#X connect 0 0 1 0;
#X connect 1 0 10 0;
#X connect 1 0 14 1;
#X connect 2 0 3 0;
#X connect 3 0 10 0;
#X connect 3 0 15 1;
#X connect 4 0 6 0;
#X connect 5 0 7 0;
#X connect 6 0 10 0;
#X connect 6 0 16 1;
#X connect 7 0 10 0;
#X connect 7 0 17 1;
#X connect 8 0 9 0;
#X connect 9 0 18 0;
#X connect 10 0 12 0;
#X connect 10 1 13 0;
#X connect 13 0 11 0;
#X connect 14 0 15 0;
#X connect 15 0 16 0;
#X connect 16 0 17 0;
#X connect 17 0 20 0;
#X connect 18 0 19 0;
#X connect 18 1 14 0;
#X connect 18 2 10 0;
#X connect 19 0 14 1;
#X connect 19 0 17 1;
#X connect 19 0 16 1;
#X connect 19 0 15 1;
#X connect 20 0 23 0;
#X connect 20 1 22 0;
#X connect 22 0 21 0;
#X connect 23 0 21 0;
#X restore 1399 261 pd oled/line/12345;
#X obj 815 182 list split 5;
#X obj 15 23 delay 100;
#X obj 102 102 bng 20 250 50 0 empty empty empty 17 7 0 10 -128992
-66577 -66577;
#X obj 159 33 t b b;
#X msg 217 53 0;
#X obj 158 53 delay 50;
#X msg 158 72 1;
#X obj 259 54 print;
#X msg 259 35 RESET OLED;
#X connect 0 0 2 0;
#X connect 2 0 3 0;
#X connect 2 0 57 0;
#X connect 2 1 4 0;
#X connect 2 1 10 0;
#X connect 3 0 34 0;
#X connect 4 0 34 0;
#X connect 5 0 9 0;
#X connect 7 0 8 0;
#X connect 8 0 9 0;
#X connect 9 0 6 0;
#X connect 10 0 9 0;
#X connect 11 0 7 0;
#X connect 12 1 42 0;
#X connect 13 0 12 0;
#X connect 13 1 17 0;
#X connect 13 1 40 0;
#X connect 14 0 12 0;
#X connect 14 1 18 0;
#X connect 15 0 12 0;
#X connect 15 1 19 0;
#X connect 16 0 12 0;
#X connect 16 1 20 0;
#X connect 17 0 11 0;
#X connect 18 0 11 0;
#X connect 19 0 11 0;
#X connect 20 0 11 0;
#X connect 21 0 12 0;
#X connect 21 1 22 0;
#X connect 22 0 11 0;
#X connect 23 0 12 0;
#X connect 23 1 24 0;
#X connect 24 0 11 0;
#X connect 25 0 12 0;
#X connect 25 1 26 0;
#X connect 26 0 11 0;
#X connect 27 0 12 0;
#X connect 27 1 28 0;
#X connect 28 0 11 0;
#X connect 29 0 12 0;
#X connect 29 1 30 0;
#X connect 30 0 11 0;
#X connect 31 0 60 0;
#X connect 35 0 64 0;
#X connect 36 0 0 0;
#X connect 37 0 61 0;
#X connect 38 0 39 0;
#X connect 38 0 44 1;
#X connect 38 0 46 1;
#X connect 39 0 38 1;
#X connect 40 0 41 0;
#X connect 40 1 44 0;
#X connect 41 0 38 1;
#X connect 42 0 38 0;
#X connect 42 1 11 0;
#X connect 43 0 51 0;
#X connect 44 0 45 0;
#X connect 45 0 46 0;
#X connect 46 0 47 0;
#X connect 48 0 63 0;
#X connect 48 1 49 0;
#X connect 49 0 11 0;
#X connect 50 0 11 0;
#X connect 51 0 44 2;
#X connect 54 0 50 0;
#X connect 55 1 50 0;
#X connect 56 0 61 0;
#X connect 57 0 5 0;
#X connect 57 1 56 0;
#X connect 57 1 54 0;
#X connect 58 0 42 0;
#X connect 58 1 59 0;
#X connect 59 0 11 0;
#X connect 60 0 61 0;
#X connect 60 1 61 0;
#X connect 61 0 13 0;
#X connect 61 1 14 0;
#X connect 61 2 15 0;
#X connect 61 3 16 0;
#X connect 61 4 21 0;
#X connect 61 5 23 0;
#X connect 61 6 25 0;
#X connect 61 7 27 0;
#X connect 61 8 29 0;
#X connect 61 9 48 0;
#X connect 61 10 55 0;
#X connect 61 11 58 0;
#X connect 61 12 62 0;
#X connect 61 13 62 1;
#X connect 61 14 62 2;
#X connect 61 15 62 3;
#X connect 61 16 62 4;
#X connect 62 0 42 0;
#X connect 62 1 11 0;
#X connect 62 2 11 0;
#X connect 63 0 12 0;
#X connect 64 0 36 0;
#X connect 65 0 66 0;
#X connect 66 0 68 0;
#X connect 66 1 67 0;
#X connect 66 1 71 0;
#X connect 67 0 0 0;
#X connect 68 0 69 0;
#X connect 69 0 0 0;
#X connect 71 0 70 0;
#X coords 0 -1 1 1 57 25 2 100 100;
#X restore 172 154 pd enableKeyboard;
#X text 374 153 v1.2;
#N canvas 21 89 281 196 enableKeyboard 0;
#X obj 102 102 bng 20 250 50 0 empty empty empty 17 7 0 10 -261234
-258113 -258113;
#X obj 102 147 s panic;
#X text 122 105 panic;
#X connect 0 0 1 0;
#X coords 0 -1 1 1 57 25 2 100 100;
#X restore 237 154 pd enableKeyboard;
