#N canvas 616 217 1362 691 10;
#X obj 70 25 key;
#X obj 125 25 keyup;
#X obj 70 206 change;
#X msg 70 167 1;
#X msg 125 166 0;
#X obj 72 389 outlet;
#X obj 70 132 sel \$1;
#X obj 125 133 sel \$1;
#X obj 278 251 sel 1 0;
#X obj 280 504 s notes;
#X obj 333 340 loadbang;
#X msg 278 279 100;
#X msg 329 279 0;
#X obj 280 385 pack;
#X floatatom 313 384 5 0 0 0 - - -;
#X msg 280 406 \$2 \$1;
#X obj 333 361 \$2;
#X obj 125 76 spigot;
#X obj 70 76 spigot;
#X obj 205 28 r keyboardIsOn;
#X obj 304 111 r panic;
#X connect 0 0 18 0;
#X connect 1 0 17 0;
#X connect 2 0 5 0;
#X connect 2 0 8 0;
#X connect 3 0 2 0;
#X connect 4 0 2 0;
#X connect 6 0 3 0;
#X connect 7 0 4 0;
#X connect 8 0 11 0;
#X connect 8 1 12 0;
#X connect 10 0 16 0;
#X connect 11 0 13 0;
#X connect 12 0 13 0;
#X connect 13 0 15 0;
#X connect 14 0 13 1;
#X connect 15 0 9 0;
#X connect 16 0 14 0;
#X connect 17 0 7 0;
#X connect 18 0 6 0;
#X connect 19 0 17 1;
#X connect 19 0 18 1;
#X connect 20 0 4 0;
